<mxfile host="app.diagrams.net" modified="2024-05-31T08:10:37.658Z" agent="Mozilla/5.0 (Windows NT 10.0; Win64; x64) AppleWebKit/537.36 (KHTML, like Gecko) Chrome/125.0.0.0 Safari/537.36" etag="DJOkTPLqzR3Lg9V-D5Vu" version="24.4.10" type="github">
  <diagram name="Page-1" id="2ca16b54-16f6-2749-3443-fa8db7711227">
    <mxGraphModel dx="1363" dy="866" grid="1" gridSize="10" guides="1" tooltips="1" connect="1" arrows="1" fold="1" page="1" pageScale="1" pageWidth="1100" pageHeight="850" background="none" math="0" shadow="0">
      <root>
        <mxCell id="0" />
        <mxCell id="1" parent="0" />
        <mxCell id="LYKKpz5TpEzSUIl6XZAZ-3" value="Roles" style="swimlane;fontStyle=0;childLayout=stackLayout;horizontal=1;startSize=26;horizontalStack=0;resizeParent=1;resizeParentMax=0;resizeLast=0;collapsible=1;marginBottom=0;html=1;fontSize=18;fillColor=#ffff88;strokeColor=#070708;" vertex="1" parent="1">
          <mxGeometry x="290" y="230" width="140" height="84" as="geometry" />
        </mxCell>
        <mxCell id="LYKKpz5TpEzSUIl6XZAZ-4" value="PK&lt;span style=&quot;white-space: pre; font-size: 18px;&quot;&gt;&#x9;&lt;/span&gt;role_id" style="text;align=left;verticalAlign=top;spacingLeft=4;spacingRight=4;overflow=hidden;rotatable=0;points=[[0,0.5],[1,0.5]];portConstraint=eastwest;whiteSpace=wrap;html=1;fontSize=18;" vertex="1" parent="LYKKpz5TpEzSUIl6XZAZ-3">
          <mxGeometry y="26" width="140" height="26" as="geometry" />
        </mxCell>
        <mxCell id="LYKKpz5TpEzSUIl6XZAZ-5" value="&lt;span style=&quot;white-space: pre; font-size: 18px;&quot;&gt;&#x9;&lt;/span&gt;role_name" style="text;align=left;verticalAlign=top;spacingLeft=4;spacingRight=4;overflow=hidden;rotatable=0;points=[[0,0.5],[1,0.5]];portConstraint=eastwest;whiteSpace=wrap;html=1;fontSize=18;labelBackgroundColor=default;" vertex="1" parent="LYKKpz5TpEzSUIl6XZAZ-3">
          <mxGeometry y="52" width="140" height="32" as="geometry" />
        </mxCell>
        <mxCell id="LYKKpz5TpEzSUIl6XZAZ-12" value="Notifications" style="swimlane;fontStyle=0;childLayout=stackLayout;horizontal=1;startSize=26;horizontalStack=0;resizeParent=1;resizeParentMax=0;resizeLast=0;collapsible=1;marginBottom=0;html=1;fontSize=18;fillColor=#ffff88;strokeColor=#070708;" vertex="1" parent="1">
          <mxGeometry x="80" y="380" width="160" height="148" as="geometry" />
        </mxCell>
        <mxCell id="LYKKpz5TpEzSUIl6XZAZ-13" value="PK&lt;span style=&quot;white-space: pre; font-size: 18px;&quot;&gt;&#x9;&lt;/span&gt;notification_id" style="text;align=left;verticalAlign=top;spacingLeft=4;spacingRight=4;overflow=hidden;rotatable=0;points=[[0,0.5],[1,0.5]];portConstraint=eastwest;whiteSpace=wrap;html=1;fontSize=18;" vertex="1" parent="LYKKpz5TpEzSUIl6XZAZ-12">
          <mxGeometry y="26" width="160" height="26" as="geometry" />
        </mxCell>
        <mxCell id="LYKKpz5TpEzSUIl6XZAZ-14" value="FK&lt;span style=&quot;white-space: pre; font-size: 18px;&quot;&gt;&#x9;&lt;/span&gt;user_id" style="text;align=left;verticalAlign=top;spacingLeft=4;spacingRight=4;overflow=hidden;rotatable=0;points=[[0,0.5],[1,0.5]];portConstraint=eastwest;whiteSpace=wrap;html=1;fontSize=18;labelBackgroundColor=default;" vertex="1" parent="LYKKpz5TpEzSUIl6XZAZ-12">
          <mxGeometry y="52" width="160" height="32" as="geometry" />
        </mxCell>
        <mxCell id="LYKKpz5TpEzSUIl6XZAZ-15" value="&lt;span style=&quot;white-space: pre; font-size: 18px;&quot;&gt;&#x9;&lt;/span&gt;title&lt;span style=&quot;color: rgba(0, 0, 0, 0); font-family: monospace; font-size: 18px; text-wrap: nowrap; background-color: rgb(251, 251, 251);&quot;&gt;%3CmxGraphModel%3E%3Croot%3E%3CmxCell%20id%3D%220%22%2F%3E%3CmxCell%20id%3D%221%22%20parent%3D%220%22%2F%3E%3CmxCell%20id%3D%222%22%20value%3D%22%26lt%3Bspan%20style%3D%26quot%3Bwhite-space%3A%20pre%3B%20font-size%3A%2014px%3B%26quot%3B%26gt%3B%26%239%3B%26lt%3B%2Fspan%26gt%3Buser_id%22%20style%3D%22text%3Balign%3Dleft%3BverticalAlign%3Dtop%3BspacingLeft%3D4%3BspacingRight%3D4%3Boverflow%3Dhidden%3Brotatable%3D0%3Bpoints%3D%5B%5B0%2C0.5%5D%2C%5B1%2C0.5%5D%5D%3BportConstraint%3Deastwest%3BwhiteSpace%3Dwrap%3Bhtml%3D1%3BfontSize%3D14%3BlabelBackgroundColor%3Ddefault%3B%22%20vertex%3D%221%22%20parent%3D%221%22%3E%3CmxGeometry%20x%3D%22130%22%20y%3D%22472%22%20width%3D%22140%22%20height%3D%2232%22%20as%3D%22geometry%22%2F%3E%3C%2FmxCell%3E%3C%2Froot%3E%3C%2FmxGraphModel%3E&lt;/span&gt;" style="text;align=left;verticalAlign=top;spacingLeft=4;spacingRight=4;overflow=hidden;rotatable=0;points=[[0,0.5],[1,0.5]];portConstraint=eastwest;whiteSpace=wrap;html=1;fontSize=18;labelBackgroundColor=default;" vertex="1" parent="LYKKpz5TpEzSUIl6XZAZ-12">
          <mxGeometry y="84" width="160" height="32" as="geometry" />
        </mxCell>
        <mxCell id="LYKKpz5TpEzSUIl6XZAZ-16" value="&lt;span style=&quot;white-space: pre; font-size: 18px;&quot;&gt;&#x9;&lt;/span&gt;message&lt;span style=&quot;color: rgba(0, 0, 0, 0); font-family: monospace; font-size: 18px; text-wrap: nowrap; background-color: rgb(251, 251, 251);&quot;&gt;%3CmxGraphModel%3E%3Croot%3E%3CmxCell%20id%3D%220%22%2F%3E%3CmxCell%20id%3D%221%22%20parent%3D%220%22%2F%3E%3CmxCell%20id%3D%222%22%20value%3D%22%26lt%3Bspan%20style%3D%26quot%3Bwhite-space%3A%20pre%3B%20font-size%3A%2014px%3B%26quot%3B%26gt%3B%26%239%3B%26lt%3B%2Fspan%26gt%3Buser_id%22%20style%3D%22text%3Balign%3Dleft%3BverticalAlign%3Dtop%3BspacingLeft%3D4%3BspacingRight%3D4%3Boverflow%3Dhidden%3Brotatable%3D0%3Bpoints%3D%5B%5B0%2C0.5%5D%2C%5B1%2C0.5%5D%5D%3BportConstraint%3Deastwest%3BwhiteSpace%3Dwrap%3Bhtml%3D1%3BfontSize%3D14%3BlabelBackgroundColor%3Ddefault%3B%22%20vertex%3D%221%22%20parent%3D%221%22%3E%3CmxGeometry%20x%3D%22130%22%20y%3D%22472%22%20width%3D%22140%22%20height%3D%2232%22%20as%3D%22geometry%22%2F%3E%3C%2FmxCell%3E%3C%2Froot%3E%3C%2FmxGraphModel%3E&lt;/span&gt;" style="text;align=left;verticalAlign=top;spacingLeft=4;spacingRight=4;overflow=hidden;rotatable=0;points=[[0,0.5],[1,0.5]];portConstraint=eastwest;whiteSpace=wrap;html=1;fontSize=18;labelBackgroundColor=default;" vertex="1" parent="LYKKpz5TpEzSUIl6XZAZ-12">
          <mxGeometry y="116" width="160" height="32" as="geometry" />
        </mxCell>
        <mxCell id="LYKKpz5TpEzSUIl6XZAZ-17" value="Logs" style="swimlane;fontStyle=0;childLayout=stackLayout;horizontal=1;startSize=26;horizontalStack=0;resizeParent=1;resizeParentMax=0;resizeLast=0;collapsible=1;marginBottom=0;html=1;fontSize=18;fillColor=#ffff88;strokeColor=#070708;" vertex="1" parent="1">
          <mxGeometry x="90" y="560" width="150" height="244" as="geometry" />
        </mxCell>
        <mxCell id="LYKKpz5TpEzSUIl6XZAZ-18" value="PK&lt;span style=&quot;white-space: pre; font-size: 18px;&quot;&gt;&#x9;&lt;/span&gt;log_id" style="text;align=left;verticalAlign=top;spacingLeft=4;spacingRight=4;overflow=hidden;rotatable=0;points=[[0,0.5],[1,0.5]];portConstraint=eastwest;whiteSpace=wrap;html=1;fontSize=18;" vertex="1" parent="LYKKpz5TpEzSUIl6XZAZ-17">
          <mxGeometry y="26" width="150" height="26" as="geometry" />
        </mxCell>
        <mxCell id="LYKKpz5TpEzSUIl6XZAZ-19" value="FK&lt;span style=&quot;white-space: pre; font-size: 18px;&quot;&gt;&#x9;&lt;/span&gt;user_id" style="text;align=left;verticalAlign=top;spacingLeft=4;spacingRight=4;overflow=hidden;rotatable=0;points=[[0,0.5],[1,0.5]];portConstraint=eastwest;whiteSpace=wrap;html=1;fontSize=18;labelBackgroundColor=default;" vertex="1" parent="LYKKpz5TpEzSUIl6XZAZ-17">
          <mxGeometry y="52" width="150" height="32" as="geometry" />
        </mxCell>
        <mxCell id="LYKKpz5TpEzSUIl6XZAZ-20" value="&lt;span style=&quot;white-space: pre; font-size: 18px;&quot;&gt;&#x9;&lt;/span&gt;action&lt;span style=&quot;color: rgba(0, 0, 0, 0); font-family: monospace; font-size: 18px; text-wrap: nowrap; background-color: rgb(251, 251, 251);&quot;&gt;%3CmxGraphModel%3E%3Croot%3E%3CmxCell%20id%3D%220%22%2F%3E%3CmxCell%20id%3D%221%22%20parent%3D%220%22%2F%3E%3CmxCell%20id%3D%222%22%20value%3D%22%26lt%3Bspan%20style%3D%26quot%3Bwhite-space%3A%20pre%3B%20font-size%3A%2014px%3B%26quot%3B%26gt%3B%26%239%3B%26lt%3B%2Fspan%26gt%3Buser_id%22%20style%3D%22text%3Balign%3Dleft%3BverticalAlign%3Dtop%3BspacingLeft%3D4%3BspacingRight%3D4%3Boverflow%3Dhidden%3Brotatable%3D0%3Bpoints%3D%5B%5B0%2C0.5%5D%2C%5B1%2C0.5%5D%5D%3BportConstraint%3Deastwest%3BwhiteSpace%3Dwrap%3Bhtml%3D1%3BfontSize%3D14%3BlabelBackgroundColor%3Ddefault%3B%22%20vertex%3D%221%22%20parent%3D%221%22%3E%3CmxGeometry%20x%3D%22130%22%20y%3D%22472%22%20width%3D%22140%22%20height%3D%2232%22%20as%3D%22geometry%22%2F%3E%3C%2FmxCell%3E%3C%2Froot%3E%3C%2FmxGraphModel%3E&lt;/span&gt;" style="text;align=left;verticalAlign=top;spacingLeft=4;spacingRight=4;overflow=hidden;rotatable=0;points=[[0,0.5],[1,0.5]];portConstraint=eastwest;whiteSpace=wrap;html=1;fontSize=18;labelBackgroundColor=default;" vertex="1" parent="LYKKpz5TpEzSUIl6XZAZ-17">
          <mxGeometry y="84" width="150" height="32" as="geometry" />
        </mxCell>
        <mxCell id="LYKKpz5TpEzSUIl6XZAZ-21" value="&lt;span style=&quot;white-space: pre; font-size: 18px;&quot;&gt;&#x9;&lt;/span&gt;details&lt;span style=&quot;color: rgba(0, 0, 0, 0); font-family: monospace; font-size: 18px; text-wrap: nowrap; background-color: rgb(251, 251, 251);&quot;&gt;%3CmxGraphModel%3E%3Croot%3E%3CmxCell%20id%3D%220%22%2F%3E%3CmxCell%20id%3D%221%22%20parent%3D%220%22%2F%3E%3CmxCell%20id%3D%222%22%20value%3D%22%26lt%3Bspan%20style%3D%26quot%3Bwhite-space%3A%20pre%3B%20font-size%3A%2014px%3B%26quot%3B%26gt%3B%26%239%3B%26lt%3B%2Fspan%26gt%3Buser_id%22%20style%3D%22text%3Balign%3Dleft%3BverticalAlign%3Dtop%3BspacingLeft%3D4%3BspacingRight%3D4%3Boverflow%3Dhidden%3Brotatable%3D0%3Bpoints%3D%5B%5B0%2C0.5%5D%2C%5B1%2C0.5%5D%5D%3BportConstraint%3Deastwest%3BwhiteSpace%3Dwrap%3Bhtml%3D1%3BfontSize%3D14%3BlabelBackgroundColor%3Ddefault%3B%22%20vertex%3D%221%22%20parent%3D%221%22%3E%3CmxGeometry%20x%3D%22130%22%20y%3D%22472%22%20width%3D%22140%22%20height%3D%2232%22%20as%3D%22geometry%22%2F%3E%3C%2FmxCell%3E%3C%2Froot%3E%3C%2FmxGraphModel%3E&lt;/span&gt;" style="text;align=left;verticalAlign=top;spacingLeft=4;spacingRight=4;overflow=hidden;rotatable=0;points=[[0,0.5],[1,0.5]];portConstraint=eastwest;whiteSpace=wrap;html=1;fontSize=18;labelBackgroundColor=default;" vertex="1" parent="LYKKpz5TpEzSUIl6XZAZ-17">
          <mxGeometry y="116" width="150" height="32" as="geometry" />
        </mxCell>
        <mxCell id="LYKKpz5TpEzSUIl6XZAZ-22" value="&lt;span style=&quot;white-space: pre; font-size: 18px;&quot;&gt;&#x9;&lt;/span&gt;device&lt;span style=&quot;color: rgba(0, 0, 0, 0); font-family: monospace; font-size: 18px; text-wrap: nowrap; background-color: rgb(251, 251, 251);&quot;&gt;%3CmxGraphModel%3E%3Croot%3E%3CmxCell%20id%3D%220%22%2F%3E%3CmxCell%20id%3D%221%22%20parent%3D%220%22%2F%3E%3CmxCell%20id%3D%222%22%20value%3D%22%26lt%3Bspan%20style%3D%26quot%3Bwhite-space%3A%20pre%3B%20font-size%3A%2014px%3B%26quot%3B%26gt%3B%26%239%3B%26lt%3B%2Fspan%26gt%3Bdetails%26lt%3Bspan%20style%3D%26quot%3Bcolor%3A%20rgba(0%2C%200%2C%200%2C%200)%3B%20font-family%3A%20monospace%3B%20font-size%3A%200px%3B%20text-wrap%3A%20nowrap%3B%20background-color%3A%20rgb(251%2C%20251%2C%20251)%3B%26quot%3B%26gt%3B%253CmxGraphModel%253E%253Croot%253E%253CmxCell%2520id%253D%25220%2522%252F%253E%253CmxCell%2520id%253D%25221%2522%2520parent%253D%25220%2522%252F%253E%253CmxCell%2520id%253D%25222%2522%2520value%253D%2522%2526lt%253Bspan%2520style%253D%2526quot%253Bwhite-space%253A%2520pre%253B%2520font-size%253A%252014px%253B%2526quot%253B%2526gt%253B%2526%25239%253B%2526lt%253B%252Fspan%2526gt%253Buser_id%2522%2520style%253D%2522text%253Balign%253Dleft%253BverticalAlign%253Dtop%253BspacingLeft%253D4%253BspacingRight%253D4%253Boverflow%253Dhidden%253Brotatable%253D0%253Bpoints%253D%255B%255B0%252C0.5%255D%252C%255B1%252C0.5%255D%255D%253BportConstraint%253Deastwest%253BwhiteSpace%253Dwrap%253Bhtml%253D1%253BfontSize%253D14%253BlabelBackgroundColor%253Ddefault%253B%2522%2520vertex%253D%25221%2522%2520parent%253D%25221%2522%253E%253CmxGeometry%2520x%253D%2522130%2522%2520y%253D%2522472%2522%2520width%253D%2522140%2522%2520height%253D%252232%2522%2520as%253D%2522geometry%2522%252F%253E%253C%252FmxCell%253E%253C%252Froot%253E%253C%252FmxGraphModel%253E%26lt%3B%2Fspan%26gt%3B%22%20style%3D%22text%3Balign%3Dleft%3BverticalAlign%3Dtop%3BspacingLeft%3D4%3BspacingRight%3D4%3Boverflow%3Dhidden%3Brotatable%3D0%3Bpoints%3D%5B%5B0%2C0.5%5D%2C%5B1%2C0.5%5D%5D%3BportConstraint%3Deastwest%3BwhiteSpace%3Dwrap%3Bhtml%3D1%3BfontSize%3D14%3BlabelBackgroundColor%3Ddefault%3B%22%20vertex%3D%221%22%20parent%3D%221%22%3E%3CmxGeometry%20x%3D%2290%22%20y%3D%22676%22%20width%3D%22140%22%20height%3D%2232%22%20as%3D%22geometry%22%2F%3E%3C%2FmxCell%3E%3C%2Froot%3E%3C%2FmxGraphModel%3E&lt;/span&gt;" style="text;align=left;verticalAlign=top;spacingLeft=4;spacingRight=4;overflow=hidden;rotatable=0;points=[[0,0.5],[1,0.5]];portConstraint=eastwest;whiteSpace=wrap;html=1;fontSize=18;labelBackgroundColor=default;" vertex="1" parent="LYKKpz5TpEzSUIl6XZAZ-17">
          <mxGeometry y="148" width="150" height="32" as="geometry" />
        </mxCell>
        <mxCell id="LYKKpz5TpEzSUIl6XZAZ-23" value="&lt;span style=&quot;white-space: pre; font-size: 18px;&quot;&gt;&#x9;&lt;/span&gt;browser" style="text;align=left;verticalAlign=top;spacingLeft=4;spacingRight=4;overflow=hidden;rotatable=0;points=[[0,0.5],[1,0.5]];portConstraint=eastwest;whiteSpace=wrap;html=1;fontSize=18;labelBackgroundColor=default;" vertex="1" parent="LYKKpz5TpEzSUIl6XZAZ-17">
          <mxGeometry y="180" width="150" height="32" as="geometry" />
        </mxCell>
        <mxCell id="LYKKpz5TpEzSUIl6XZAZ-24" value="&lt;span style=&quot;white-space: pre; font-size: 18px;&quot;&gt;&#x9;&lt;/span&gt;time_stamp" style="text;align=left;verticalAlign=top;spacingLeft=4;spacingRight=4;overflow=hidden;rotatable=0;points=[[0,0.5],[1,0.5]];portConstraint=eastwest;whiteSpace=wrap;html=1;fontSize=18;labelBackgroundColor=default;" vertex="1" parent="LYKKpz5TpEzSUIl6XZAZ-17">
          <mxGeometry y="212" width="150" height="32" as="geometry" />
        </mxCell>
        <mxCell id="LYKKpz5TpEzSUIl6XZAZ-25" value="Users" style="swimlane;fontStyle=0;childLayout=stackLayout;horizontal=1;startSize=26;horizontalStack=0;resizeParent=1;resizeParentMax=0;resizeLast=0;collapsible=1;marginBottom=0;html=1;fontSize=18;fillColor=#ffff88;strokeColor=#070708;" vertex="1" parent="1">
          <mxGeometry x="300" y="380" width="160" height="372" as="geometry" />
        </mxCell>
        <mxCell id="LYKKpz5TpEzSUIl6XZAZ-26" value="PK&lt;span style=&quot;white-space: pre; font-size: 18px;&quot;&gt;&#x9;&lt;/span&gt;user_id" style="text;align=left;verticalAlign=top;spacingLeft=4;spacingRight=4;overflow=hidden;rotatable=0;points=[[0,0.5],[1,0.5]];portConstraint=eastwest;whiteSpace=wrap;html=1;fontSize=18;" vertex="1" parent="LYKKpz5TpEzSUIl6XZAZ-25">
          <mxGeometry y="26" width="160" height="26" as="geometry" />
        </mxCell>
        <mxCell id="LYKKpz5TpEzSUIl6XZAZ-27" value="FK&lt;span style=&quot;white-space: pre; font-size: 18px;&quot;&gt;&#x9;&lt;/span&gt;role_id" style="text;align=left;verticalAlign=top;spacingLeft=4;spacingRight=4;overflow=hidden;rotatable=0;points=[[0,0.5],[1,0.5]];portConstraint=eastwest;whiteSpace=wrap;html=1;fontSize=18;labelBackgroundColor=default;" vertex="1" parent="LYKKpz5TpEzSUIl6XZAZ-25">
          <mxGeometry y="52" width="160" height="32" as="geometry" />
        </mxCell>
        <mxCell id="LYKKpz5TpEzSUIl6XZAZ-28" value="&lt;span style=&quot;white-space: pre; font-size: 18px;&quot;&gt;&#x9;&lt;/span&gt;username" style="text;align=left;verticalAlign=top;spacingLeft=4;spacingRight=4;overflow=hidden;rotatable=0;points=[[0,0.5],[1,0.5]];portConstraint=eastwest;whiteSpace=wrap;html=1;fontSize=18;labelBackgroundColor=default;" vertex="1" parent="LYKKpz5TpEzSUIl6XZAZ-25">
          <mxGeometry y="84" width="160" height="32" as="geometry" />
        </mxCell>
        <mxCell id="LYKKpz5TpEzSUIl6XZAZ-29" value="&lt;span style=&quot;white-space: pre; font-size: 18px;&quot;&gt;&#x9;&lt;/span&gt;email" style="text;align=left;verticalAlign=top;spacingLeft=4;spacingRight=4;overflow=hidden;rotatable=0;points=[[0,0.5],[1,0.5]];portConstraint=eastwest;whiteSpace=wrap;html=1;fontSize=18;labelBackgroundColor=default;" vertex="1" parent="LYKKpz5TpEzSUIl6XZAZ-25">
          <mxGeometry y="116" width="160" height="32" as="geometry" />
        </mxCell>
        <mxCell id="LYKKpz5TpEzSUIl6XZAZ-30" value="&lt;span style=&quot;white-space: pre; font-size: 18px;&quot;&gt;&#x9;&lt;/span&gt;password" style="text;align=left;verticalAlign=top;spacingLeft=4;spacingRight=4;overflow=hidden;rotatable=0;points=[[0,0.5],[1,0.5]];portConstraint=eastwest;whiteSpace=wrap;html=1;fontSize=18;labelBackgroundColor=default;" vertex="1" parent="LYKKpz5TpEzSUIl6XZAZ-25">
          <mxGeometry y="148" width="160" height="32" as="geometry" />
        </mxCell>
        <mxCell id="LYKKpz5TpEzSUIl6XZAZ-31" value="&lt;span style=&quot;white-space: pre; font-size: 18px;&quot;&gt;&#x9;&lt;/span&gt;first_name" style="text;align=left;verticalAlign=top;spacingLeft=4;spacingRight=4;overflow=hidden;rotatable=0;points=[[0,0.5],[1,0.5]];portConstraint=eastwest;whiteSpace=wrap;html=1;fontSize=18;labelBackgroundColor=default;" vertex="1" parent="LYKKpz5TpEzSUIl6XZAZ-25">
          <mxGeometry y="180" width="160" height="32" as="geometry" />
        </mxCell>
        <mxCell id="LYKKpz5TpEzSUIl6XZAZ-32" value="&lt;span style=&quot;white-space: pre; font-size: 18px;&quot;&gt;&#x9;&lt;/span&gt;middle_name&lt;span style=&quot;color: rgba(0, 0, 0, 0); font-family: monospace; font-size: 18px; text-wrap: nowrap; background-color: rgb(251, 251, 251);&quot;&gt;%3CmxGraphModel%3E%3Croot%3E%3CmxCell%20id%3D%220%22%2F%3E%3CmxCell%20id%3D%221%22%20parent%3D%220%22%2F%3E%3CmxCell%20id%3D%222%22%20value%3D%22Logs%22%20style%3D%22swimlane%3BfontStyle%3D0%3BchildLayout%3DstackLayout%3Bhorizontal%3D1%3BstartSize%3D26%3BhorizontalStack%3D0%3BresizeParent%3D1%3BresizeParentMax%3D0%3BresizeLast%3D0%3Bcollapsible%3D1%3BmarginBottom%3D0%3Bhtml%3D1%3BfontSize%3D14%3BfillColor%3D%23ffff88%3BstrokeColor%3D%23070708%3B%22%20vertex%3D%221%22%20parent%3D%221%22%3E%3CmxGeometry%20x%3D%2270%22%20y%3D%22590%22%20width%3D%22140%22%20height%3D%22244%22%20as%3D%22geometry%22%2F%3E%3C%2FmxCell%3E%3CmxCell%20id%3D%223%22%20value%3D%22PK%26lt%3Bspan%20style%3D%26quot%3Bwhite-space%3A%20pre%3B%26quot%3B%26gt%3B%26%239%3B%26lt%3B%2Fspan%26gt%3Blog_id%22%20style%3D%22text%3Balign%3Dleft%3BverticalAlign%3Dtop%3BspacingLeft%3D4%3BspacingRight%3D4%3Boverflow%3Dhidden%3Brotatable%3D0%3Bpoints%3D%5B%5B0%2C0.5%5D%2C%5B1%2C0.5%5D%5D%3BportConstraint%3Deastwest%3BwhiteSpace%3Dwrap%3Bhtml%3D1%3BfontSize%3D14%3B%22%20vertex%3D%221%22%20parent%3D%222%22%3E%3CmxGeometry%20y%3D%2226%22%20width%3D%22140%22%20height%3D%2226%22%20as%3D%22geometry%22%2F%3E%3C%2FmxCell%3E%3CmxCell%20id%3D%224%22%20value%3D%22%26lt%3Bspan%20style%3D%26quot%3Bwhite-space%3A%20pre%3B%20font-size%3A%2014px%3B%26quot%3B%26gt%3B%26%239%3B%26lt%3B%2Fspan%26gt%3Buser_id%22%20style%3D%22text%3Balign%3Dleft%3BverticalAlign%3Dtop%3BspacingLeft%3D4%3BspacingRight%3D4%3Boverflow%3Dhidden%3Brotatable%3D0%3Bpoints%3D%5B%5B0%2C0.5%5D%2C%5B1%2C0.5%5D%5D%3BportConstraint%3Deastwest%3BwhiteSpace%3Dwrap%3Bhtml%3D1%3BfontSize%3D14%3BlabelBackgroundColor%3Ddefault%3B%22%20vertex%3D%221%22%20parent%3D%222%22%3E%3CmxGeometry%20y%3D%2252%22%20width%3D%22140%22%20height%3D%2232%22%20as%3D%22geometry%22%2F%3E%3C%2FmxCell%3E%3CmxCell%20id%3D%225%22%20value%3D%22%26lt%3Bspan%20style%3D%26quot%3Bwhite-space%3A%20pre%3B%20font-size%3A%2014px%3B%26quot%3B%26gt%3B%26%239%3B%26lt%3B%2Fspan%26gt%3Baction%26lt%3Bspan%20style%3D%26quot%3Bcolor%3A%20rgba(0%2C%200%2C%200%2C%200)%3B%20font-family%3A%20monospace%3B%20font-size%3A%200px%3B%20text-wrap%3A%20nowrap%3B%20background-color%3A%20rgb(251%2C%20251%2C%20251)%3B%26quot%3B%26gt%3B%253CmxGraphModel%253E%253Croot%253E%253CmxCell%2520id%253D%25220%2522%252F%253E%253CmxCell%2520id%253D%25221%2522%2520parent%253D%25220%2522%252F%253E%253CmxCell%2520id%253D%25222%2522%2520value%253D%2522%2526lt%253Bspan%2520style%253D%2526quot%253Bwhite-space%253A%2520pre%253B%2520font-size%253A%252014px%253B%2526quot%253B%2526gt%253B%2526%25239%253B%2526lt%253B%252Fspan%2526gt%253Buser_id%2522%2520style%253D%2522text%253Balign%253Dleft%253BverticalAlign%253Dtop%253BspacingLeft%253D4%253BspacingRight%253D4%253Boverflow%253Dhidden%253Brotatable%253D0%253Bpoints%253D%255B%255B0%252C0.5%255D%252C%255B1%252C0.5%255D%255D%253BportConstraint%253Deastwest%253BwhiteSpace%253Dwrap%253Bhtml%253D1%253BfontSize%253D14%253BlabelBackgroundColor%253Ddefault%253B%2522%2520vertex%253D%25221%2522%2520parent%253D%25221%2522%253E%253CmxGeometry%2520x%253D%2522130%2522%2520y%253D%2522472%2522%2520width%253D%2522140%2522%2520height%253D%252232%2522%2520as%253D%2522geometry%2522%252F%253E%253C%252FmxCell%253E%253C%252Froot%253E%253C%252FmxGraphModel%253E%26lt%3B%2Fspan%26gt%3B%22%20style%3D%22text%3Balign%3Dleft%3BverticalAlign%3Dtop%3BspacingLeft%3D4%3BspacingRight%3D4%3Boverflow%3Dhidden%3Brotatable%3D0%3Bpoints%3D%5B%5B0%2C0.5%5D%2C%5B1%2C0.5%5D%5D%3BportConstraint%3Deastwest%3BwhiteSpace%3Dwrap%3Bhtml%3D1%3BfontSize%3D14%3BlabelBackgroundColor%3Ddefault%3B%22%20vertex%3D%221%22%20parent%3D%222%22%3E%3CmxGeometry%20y%3D%2284%22%20width%3D%22140%22%20height%3D%2232%22%20as%3D%22geometry%22%2F%3E%3C%2FmxCell%3E%3CmxCell%20id%3D%226%22%20value%3D%22%26lt%3Bspan%20style%3D%26quot%3Bwhite-space%3A%20pre%3B%20font-size%3A%2014px%3B%26quot%3B%26gt%3B%26%239%3B%26lt%3B%2Fspan%26gt%3Bdetails%26lt%3Bspan%20style%3D%26quot%3Bcolor%3A%20rgba(0%2C%200%2C%200%2C%200)%3B%20font-family%3A%20monospace%3B%20font-size%3A%200px%3B%20text-wrap%3A%20nowrap%3B%20background-color%3A%20rgb(251%2C%20251%2C%20251)%3B%26quot%3B%26gt%3B%253CmxGraphModel%253E%253Croot%253E%253CmxCell%2520id%253D%25220%2522%252F%253E%253CmxCell%2520id%253D%25221%2522%2520parent%253D%25220%2522%252F%253E%253CmxCell%2520id%253D%25222%2522%2520value%253D%2522%2526lt%253Bspan%2520style%253D%2526quot%253Bwhite-space%253A%2520pre%253B%2520font-size%253A%252014px%253B%2526quot%253B%2526gt%253B%2526%25239%253B%2526lt%253B%252Fspan%2526gt%253Buser_id%2522%2520style%253D%2522text%253Balign%253Dleft%253BverticalAlign%253Dtop%253BspacingLeft%253D4%253BspacingRight%253D4%253Boverflow%253Dhidden%253Brotatable%253D0%253Bpoints%253D%255B%255B0%252C0.5%255D%252C%255B1%252C0.5%255D%255D%253BportConstraint%253Deastwest%253BwhiteSpace%253Dwrap%253Bhtml%253D1%253BfontSize%253D14%253BlabelBackgroundColor%253Ddefault%253B%2522%2520vertex%253D%25221%2522%2520parent%253D%25221%2522%253E%253CmxGeometry%2520x%253D%2522130%2522%2520y%253D%2522472%2522%2520width%253D%2522140%2522%2520height%253D%252232%2522%2520as%253D%2522geometry%2522%252F%253E%253C%252FmxCell%253E%253C%252Froot%253E%253C%252FmxGraphModel%253E%26lt%3B%2Fspan%26gt%3B%22%20style%3D%22text%3Balign%3Dleft%3BverticalAlign%3Dtop%3BspacingLeft%3D4%3BspacingRight%3D4%3Boverflow%3Dhidden%3Brotatable%3D0%3Bpoints%3D%5B%5B0%2C0.5%5D%2C%5B1%2C0.5%5D%5D%3BportConstraint%3Deastwest%3BwhiteSpace%3Dwrap%3Bhtml%3D1%3BfontSize%3D14%3BlabelBackgroundColor%3Ddefault%3B%22%20vertex%3D%221%22%20parent%3D%222%22%3E%3CmxGeometry%20y%3D%22116%22%20width%3D%22140%22%20height%3D%2232%22%20as%3D%22geometry%22%2F%3E%3C%2FmxCell%3E%3CmxCell%20id%3D%227%22%20value%3D%22%26lt%3Bspan%20style%3D%26quot%3Bwhite-space%3A%20pre%3B%26quot%3B%26gt%3B%26%239%3B%26lt%3B%2Fspan%26gt%3Bdevice%26lt%3Bspan%20style%3D%26quot%3Bcolor%3A%20rgba(0%2C%200%2C%200%2C%200)%3B%20font-family%3A%20monospace%3B%20font-size%3A%200px%3B%20text-wrap%3A%20nowrap%3B%20background-color%3A%20rgb(251%2C%20251%2C%20251)%3B%26quot%3B%26gt%3B%253CmxGraphModel%253E%253Croot%253E%253CmxCell%2520id%253D%25220%2522%252F%253E%253CmxCell%2520id%253D%25221%2522%2520parent%253D%25220%2522%252F%253E%253CmxCell%2520id%253D%25222%2522%2520value%253D%2522%2526lt%253Bspan%2520style%253D%2526quot%253Bwhite-space%253A%2520pre%253B%2520font-size%253A%252014px%253B%2526quot%253B%2526gt%253B%2526%25239%253B%2526lt%253B%252Fspan%2526gt%253Bdetails%2526lt%253Bspan%2520style%253D%2526quot%253Bcolor%253A%2520rgba(0%252C%25200%252C%25200%252C%25200)%253B%2520font-family%253A%2520monospace%253B%2520font-size%253A%25200px%253B%2520text-wrap%253A%2520nowrap%253B%2520background-color%253A%2520rgb(251%252C%2520251%252C%2520251)%253B%2526quot%253B%2526gt%253B%25253CmxGraphModel%25253E%25253Croot%25253E%25253CmxCell%252520id%25253D%2525220%252522%25252F%25253E%25253CmxCell%252520id%25253D%2525221%252522%252520parent%25253D%2525220%252522%25252F%25253E%25253CmxCell%252520id%25253D%2525222%252522%252520value%25253D%252522%252526lt%25253Bspan%252520style%25253D%252526quot%25253Bwhite-space%25253A%252520pre%25253B%252520font-size%25253A%25252014px%25253B%252526quot%25253B%252526gt%25253B%252526%2525239%25253B%252526lt%25253B%25252Fspan%252526gt%25253Buser_id%252522%252520style%25253D%252522text%25253Balign%25253Dleft%25253BverticalAlign%25253Dtop%25253BspacingLeft%25253D4%25253BspacingRight%25253D4%25253Boverflow%25253Dhidden%25253Brotatable%25253D0%25253Bpoints%25253D%25255B%25255B0%25252C0.5%25255D%25252C%25255B1%25252C0.5%25255D%25255D%25253BportConstraint%25253Deastwest%25253BwhiteSpace%25253Dwrap%25253Bhtml%25253D1%25253BfontSize%25253D14%25253BlabelBackgroundColor%25253Ddefault%25253B%252522%252520vertex%25253D%2525221%252522%252520parent%25253D%2525221%252522%25253E%25253CmxGeometry%252520x%25253D%252522130%252522%252520y%25253D%252522472%252522%252520width%25253D%252522140%252522%252520height%25253D%25252232%252522%252520as%25253D%252522geometry%252522%25252F%25253E%25253C%25252FmxCell%25253E%25253C%25252Froot%25253E%25253C%25252FmxGraphModel%25253E%2526lt%253B%252Fspan%2526gt%253B%2522%2520style%253D%2522text%253Balign%253Dleft%253BverticalAlign%253Dtop%253BspacingLeft%253D4%253BspacingRight%253D4%253Boverflow%253Dhidden%253Brotatable%253D0%253Bpoints%253D%255B%255B0%252C0.5%255D%252C%255B1%252C0.5%255D%255D%253BportConstraint%253Deastwest%253BwhiteSpace%253Dwrap%253Bhtml%253D1%253BfontSize%253D14%253BlabelBackgroundColor%253Ddefault%253B%2522%2520vertex%253D%25221%2522%2520parent%253D%25221%2522%253E%253CmxGeometry%2520x%253D%252290%2522%2520y%253D%2522676%2522%2520width%253D%2522140%2522%2520height%253D%252232%2522%2520as%253D%2522geometry%2522%252F%253E%253C%252FmxCell%253E%253C%252Froot%253E%253C%252FmxGraphModel%253E%26lt%3B%2Fspan%26gt%3B%22%20style%3D%22text%3Balign%3Dleft%3BverticalAlign%3Dtop%3BspacingLeft%3D4%3BspacingRight%3D4%3Boverflow%3Dhidden%3Brotatable%3D0%3Bpoints%3D%5B%5B0%2C0.5%5D%2C%5B1%2C0.5%5D%5D%3BportConstraint%3Deastwest%3BwhiteSpace%3Dwrap%3Bhtml%3D1%3BfontSize%3D14%3BlabelBackgroundColor%3Ddefault%3B%22%20vertex%3D%221%22%20parent%3D%222%22%3E%3CmxGeometry%20y%3D%22148%22%20width%3D%22140%22%20height%3D%2232%22%20as%3D%22geometry%22%2F%3E%3C%2FmxCell%3E%3CmxCell%20id%3D%228%22%20value%3D%22%26lt%3Bspan%20style%3D%26quot%3Bwhite-space%3A%20pre%3B%26quot%3B%26gt%3B%26%239%3B%26lt%3B%2Fspan%26gt%3Bbrowser%22%20style%3D%22text%3Balign%3Dleft%3BverticalAlign%3Dtop%3BspacingLeft%3D4%3BspacingRight%3D4%3Boverflow%3Dhidden%3Brotatable%3D0%3Bpoints%3D%5B%5B0%2C0.5%5D%2C%5B1%2C0.5%5D%5D%3BportConstraint%3Deastwest%3BwhiteSpace%3Dwrap%3Bhtml%3D1%3BfontSize%3D14%3BlabelBackgroundColor%3Ddefault%3B%22%20vertex%3D%221%22%20parent%3D%222%22%3E%3CmxGeometry%20y%3D%22180%22%20width%3D%22140%22%20height%3D%2232%22%20as%3D%22geometry%22%2F%3E%3C%2FmxCell%3E%3CmxCell%20id%3D%229%22%20value%3D%22%26lt%3Bspan%20style%3D%26quot%3Bwhite-space%3A%20pre%3B%26quot%3B%26gt%3B%26%239%3B%26lt%3B%2Fspan%26gt%3Btime_stamp%22%20style%3D%22text%3Balign%3Dleft%3BverticalAlign%3Dtop%3BspacingLeft%3D4%3BspacingRight%3D4%3Boverflow%3Dhidden%3Brotatable%3D0%3Bpoints%3D%5B%5B0%2C0.5%5D%2C%5B1%2C0.5%5D%5D%3BportConstraint%3Deastwest%3BwhiteSpace%3Dwrap%3Bhtml%3D1%3BfontSize%3D14%3BlabelBackgroundColor%3Ddefault%3B%22%20vertex%3D%221%22%20parent%3D%222%22%3E%3CmxGeometry%20y%3D%22212%22%20width%3D%22140%22%20height%3D%2232%22%20as%3D%22geometry%22%2F%3E%3C%2FmxCell%3E%3C%2Froot%3E%3C%2FmxGraphModel%3E&lt;/span&gt;" style="text;align=left;verticalAlign=top;spacingLeft=4;spacingRight=4;overflow=hidden;rotatable=0;points=[[0,0.5],[1,0.5]];portConstraint=eastwest;whiteSpace=wrap;html=1;fontSize=18;labelBackgroundColor=default;" vertex="1" parent="LYKKpz5TpEzSUIl6XZAZ-25">
          <mxGeometry y="212" width="160" height="32" as="geometry" />
        </mxCell>
        <mxCell id="LYKKpz5TpEzSUIl6XZAZ-33" value="&lt;span style=&quot;white-space: pre; font-size: 18px;&quot;&gt;&#x9;&lt;/span&gt;last_name&lt;span style=&quot;color: rgba(0, 0, 0, 0); font-family: monospace; font-size: 18px; text-wrap: nowrap; background-color: rgb(251, 251, 251);&quot;&gt;%3CmxGraphModel%3E%3Croot%3E%3CmxCell%20id%3D%220%22%2F%3E%3CmxCell%20id%3D%221%22%20parent%3D%220%22%2F%3E%3CmxCell%20id%3D%222%22%20value%3D%22Logs%22%20style%3D%22swimlane%3BfontStyle%3D0%3BchildLayout%3DstackLayout%3Bhorizontal%3D1%3BstartSize%3D26%3BhorizontalStack%3D0%3BresizeParent%3D1%3BresizeParentMax%3D0%3BresizeLast%3D0%3Bcollapsible%3D1%3BmarginBottom%3D0%3Bhtml%3D1%3BfontSize%3D14%3BfillColor%3D%23ffff88%3BstrokeColor%3D%23070708%3B%22%20vertex%3D%221%22%20parent%3D%221%22%3E%3CmxGeometry%20x%3D%2270%22%20y%3D%22590%22%20width%3D%22140%22%20height%3D%22244%22%20as%3D%22geometry%22%2F%3E%3C%2FmxCell%3E%3CmxCell%20id%3D%223%22%20value%3D%22PK%26lt%3Bspan%20style%3D%26quot%3Bwhite-space%3A%20pre%3B%26quot%3B%26gt%3B%26%239%3B%26lt%3B%2Fspan%26gt%3Blog_id%22%20style%3D%22text%3Balign%3Dleft%3BverticalAlign%3Dtop%3BspacingLeft%3D4%3BspacingRight%3D4%3Boverflow%3Dhidden%3Brotatable%3D0%3Bpoints%3D%5B%5B0%2C0.5%5D%2C%5B1%2C0.5%5D%5D%3BportConstraint%3Deastwest%3BwhiteSpace%3Dwrap%3Bhtml%3D1%3BfontSize%3D14%3B%22%20vertex%3D%221%22%20parent%3D%222%22%3E%3CmxGeometry%20y%3D%2226%22%20width%3D%22140%22%20height%3D%2226%22%20as%3D%22geometry%22%2F%3E%3C%2FmxCell%3E%3CmxCell%20id%3D%224%22%20value%3D%22%26lt%3Bspan%20style%3D%26quot%3Bwhite-space%3A%20pre%3B%20font-size%3A%2014px%3B%26quot%3B%26gt%3B%26%239%3B%26lt%3B%2Fspan%26gt%3Buser_id%22%20style%3D%22text%3Balign%3Dleft%3BverticalAlign%3Dtop%3BspacingLeft%3D4%3BspacingRight%3D4%3Boverflow%3Dhidden%3Brotatable%3D0%3Bpoints%3D%5B%5B0%2C0.5%5D%2C%5B1%2C0.5%5D%5D%3BportConstraint%3Deastwest%3BwhiteSpace%3Dwrap%3Bhtml%3D1%3BfontSize%3D14%3BlabelBackgroundColor%3Ddefault%3B%22%20vertex%3D%221%22%20parent%3D%222%22%3E%3CmxGeometry%20y%3D%2252%22%20width%3D%22140%22%20height%3D%2232%22%20as%3D%22geometry%22%2F%3E%3C%2FmxCell%3E%3CmxCell%20id%3D%225%22%20value%3D%22%26lt%3Bspan%20style%3D%26quot%3Bwhite-space%3A%20pre%3B%20font-size%3A%2014px%3B%26quot%3B%26gt%3B%26%239%3B%26lt%3B%2Fspan%26gt%3Baction%26lt%3Bspan%20style%3D%26quot%3Bcolor%3A%20rgba(0%2C%200%2C%200%2C%200)%3B%20font-family%3A%20monospace%3B%20font-size%3A%200px%3B%20text-wrap%3A%20nowrap%3B%20background-color%3A%20rgb(251%2C%20251%2C%20251)%3B%26quot%3B%26gt%3B%253CmxGraphModel%253E%253Croot%253E%253CmxCell%2520id%253D%25220%2522%252F%253E%253CmxCell%2520id%253D%25221%2522%2520parent%253D%25220%2522%252F%253E%253CmxCell%2520id%253D%25222%2522%2520value%253D%2522%2526lt%253Bspan%2520style%253D%2526quot%253Bwhite-space%253A%2520pre%253B%2520font-size%253A%252014px%253B%2526quot%253B%2526gt%253B%2526%25239%253B%2526lt%253B%252Fspan%2526gt%253Buser_id%2522%2520style%253D%2522text%253Balign%253Dleft%253BverticalAlign%253Dtop%253BspacingLeft%253D4%253BspacingRight%253D4%253Boverflow%253Dhidden%253Brotatable%253D0%253Bpoints%253D%255B%255B0%252C0.5%255D%252C%255B1%252C0.5%255D%255D%253BportConstraint%253Deastwest%253BwhiteSpace%253Dwrap%253Bhtml%253D1%253BfontSize%253D14%253BlabelBackgroundColor%253Ddefault%253B%2522%2520vertex%253D%25221%2522%2520parent%253D%25221%2522%253E%253CmxGeometry%2520x%253D%2522130%2522%2520y%253D%2522472%2522%2520width%253D%2522140%2522%2520height%253D%252232%2522%2520as%253D%2522geometry%2522%252F%253E%253C%252FmxCell%253E%253C%252Froot%253E%253C%252FmxGraphModel%253E%26lt%3B%2Fspan%26gt%3B%22%20style%3D%22text%3Balign%3Dleft%3BverticalAlign%3Dtop%3BspacingLeft%3D4%3BspacingRight%3D4%3Boverflow%3Dhidden%3Brotatable%3D0%3Bpoints%3D%5B%5B0%2C0.5%5D%2C%5B1%2C0.5%5D%5D%3BportConstraint%3Deastwest%3BwhiteSpace%3Dwrap%3Bhtml%3D1%3BfontSize%3D14%3BlabelBackgroundColor%3Ddefault%3B%22%20vertex%3D%221%22%20parent%3D%222%22%3E%3CmxGeometry%20y%3D%2284%22%20width%3D%22140%22%20height%3D%2232%22%20as%3D%22geometry%22%2F%3E%3C%2FmxCell%3E%3CmxCell%20id%3D%226%22%20value%3D%22%26lt%3Bspan%20style%3D%26quot%3Bwhite-space%3A%20pre%3B%20font-size%3A%2014px%3B%26quot%3B%26gt%3B%26%239%3B%26lt%3B%2Fspan%26gt%3Bdetails%26lt%3Bspan%20style%3D%26quot%3Bcolor%3A%20rgba(0%2C%200%2C%200%2C%200)%3B%20font-family%3A%20monospace%3B%20font-size%3A%200px%3B%20text-wrap%3A%20nowrap%3B%20background-color%3A%20rgb(251%2C%20251%2C%20251)%3B%26quot%3B%26gt%3B%253CmxGraphModel%253E%253Croot%253E%253CmxCell%2520id%253D%25220%2522%252F%253E%253CmxCell%2520id%253D%25221%2522%2520parent%253D%25220%2522%252F%253E%253CmxCell%2520id%253D%25222%2522%2520value%253D%2522%2526lt%253Bspan%2520style%253D%2526quot%253Bwhite-space%253A%2520pre%253B%2520font-size%253A%252014px%253B%2526quot%253B%2526gt%253B%2526%25239%253B%2526lt%253B%252Fspan%2526gt%253Buser_id%2522%2520style%253D%2522text%253Balign%253Dleft%253BverticalAlign%253Dtop%253BspacingLeft%253D4%253BspacingRight%253D4%253Boverflow%253Dhidden%253Brotatable%253D0%253Bpoints%253D%255B%255B0%252C0.5%255D%252C%255B1%252C0.5%255D%255D%253BportConstraint%253Deastwest%253BwhiteSpace%253Dwrap%253Bhtml%253D1%253BfontSize%253D14%253BlabelBackgroundColor%253Ddefault%253B%2522%2520vertex%253D%25221%2522%2520parent%253D%25221%2522%253E%253CmxGeometry%2520x%253D%2522130%2522%2520y%253D%2522472%2522%2520width%253D%2522140%2522%2520height%253D%252232%2522%2520as%253D%2522geometry%2522%252F%253E%253C%252FmxCell%253E%253C%252Froot%253E%253C%252FmxGraphModel%253E%26lt%3B%2Fspan%26gt%3B%22%20style%3D%22text%3Balign%3Dleft%3BverticalAlign%3Dtop%3BspacingLeft%3D4%3BspacingRight%3D4%3Boverflow%3Dhidden%3Brotatable%3D0%3Bpoints%3D%5B%5B0%2C0.5%5D%2C%5B1%2C0.5%5D%5D%3BportConstraint%3Deastwest%3BwhiteSpace%3Dwrap%3Bhtml%3D1%3BfontSize%3D14%3BlabelBackgroundColor%3Ddefault%3B%22%20vertex%3D%221%22%20parent%3D%222%22%3E%3CmxGeometry%20y%3D%22116%22%20width%3D%22140%22%20height%3D%2232%22%20as%3D%22geometry%22%2F%3E%3C%2FmxCell%3E%3CmxCell%20id%3D%227%22%20value%3D%22%26lt%3Bspan%20style%3D%26quot%3Bwhite-space%3A%20pre%3B%26quot%3B%26gt%3B%26%239%3B%26lt%3B%2Fspan%26gt%3Bdevice%26lt%3Bspan%20style%3D%26quot%3Bcolor%3A%20rgba(0%2C%200%2C%200%2C%200)%3B%20font-family%3A%20monospace%3B%20font-size%3A%200px%3B%20text-wrap%3A%20nowrap%3B%20background-color%3A%20rgb(251%2C%20251%2C%20251)%3B%26quot%3B%26gt%3B%253CmxGraphModel%253E%253Croot%253E%253CmxCell%2520id%253D%25220%2522%252F%253E%253CmxCell%2520id%253D%25221%2522%2520parent%253D%25220%2522%252F%253E%253CmxCell%2520id%253D%25222%2522%2520value%253D%2522%2526lt%253Bspan%2520style%253D%2526quot%253Bwhite-space%253A%2520pre%253B%2520font-size%253A%252014px%253B%2526quot%253B%2526gt%253B%2526%25239%253B%2526lt%253B%252Fspan%2526gt%253Bdetails%2526lt%253Bspan%2520style%253D%2526quot%253Bcolor%253A%2520rgba(0%252C%25200%252C%25200%252C%25200)%253B%2520font-family%253A%2520monospace%253B%2520font-size%253A%25200px%253B%2520text-wrap%253A%2520nowrap%253B%2520background-color%253A%2520rgb(251%252C%2520251%252C%2520251)%253B%2526quot%253B%2526gt%253B%25253CmxGraphModel%25253E%25253Croot%25253E%25253CmxCell%252520id%25253D%2525220%252522%25252F%25253E%25253CmxCell%252520id%25253D%2525221%252522%252520parent%25253D%2525220%252522%25252F%25253E%25253CmxCell%252520id%25253D%2525222%252522%252520value%25253D%252522%252526lt%25253Bspan%252520style%25253D%252526quot%25253Bwhite-space%25253A%252520pre%25253B%252520font-size%25253A%25252014px%25253B%252526quot%25253B%252526gt%25253B%252526%2525239%25253B%252526lt%25253B%25252Fspan%252526gt%25253Buser_id%252522%252520style%25253D%252522text%25253Balign%25253Dleft%25253BverticalAlign%25253Dtop%25253BspacingLeft%25253D4%25253BspacingRight%25253D4%25253Boverflow%25253Dhidden%25253Brotatable%25253D0%25253Bpoints%25253D%25255B%25255B0%25252C0.5%25255D%25252C%25255B1%25252C0.5%25255D%25255D%25253BportConstraint%25253Deastwest%25253BwhiteSpace%25253Dwrap%25253Bhtml%25253D1%25253BfontSize%25253D14%25253BlabelBackgroundColor%25253Ddefault%25253B%252522%252520vertex%25253D%2525221%252522%252520parent%25253D%2525221%252522%25253E%25253CmxGeometry%252520x%25253D%252522130%252522%252520y%25253D%252522472%252522%252520width%25253D%252522140%252522%252520height%25253D%25252232%252522%252520as%25253D%252522geometry%252522%25252F%25253E%25253C%25252FmxCell%25253E%25253C%25252Froot%25253E%25253C%25252FmxGraphModel%25253E%2526lt%253B%252Fspan%2526gt%253B%2522%2520style%253D%2522text%253Balign%253Dleft%253BverticalAlign%253Dtop%253BspacingLeft%253D4%253BspacingRight%253D4%253Boverflow%253Dhidden%253Brotatable%253D0%253Bpoints%253D%255B%255B0%252C0.5%255D%252C%255B1%252C0.5%255D%255D%253BportConstraint%253Deastwest%253BwhiteSpace%253Dwrap%253Bhtml%253D1%253BfontSize%253D14%253BlabelBackgroundColor%253Ddefault%253B%2522%2520vertex%253D%25221%2522%2520parent%253D%25221%2522%253E%253CmxGeometry%2520x%253D%252290%2522%2520y%253D%2522676%2522%2520width%253D%2522140%2522%2520height%253D%252232%2522%2520as%253D%2522geometry%2522%252F%253E%253C%252FmxCell%253E%253C%252Froot%253E%253C%252FmxGraphModel%253E%26lt%3B%2Fspan%26gt%3B%22%20style%3D%22text%3Balign%3Dleft%3BverticalAlign%3Dtop%3BspacingLeft%3D4%3BspacingRight%3D4%3Boverflow%3Dhidden%3Brotatable%3D0%3Bpoints%3D%5B%5B0%2C0.5%5D%2C%5B1%2C0.5%5D%5D%3BportConstraint%3Deastwest%3BwhiteSpace%3Dwrap%3Bhtml%3D1%3BfontSize%3D14%3BlabelBackgroundColor%3Ddefault%3B%22%20vertex%3D%221%22%20parent%3D%222%22%3E%3CmxGeometry%20y%3D%22148%22%20width%3D%22140%22%20height%3D%2232%22%20as%3D%22geometry%22%2F%3E%3C%2FmxCell%3E%3CmxCell%20id%3D%228%22%20value%3D%22%26lt%3Bspan%20style%3D%26quot%3Bwhite-space%3A%20pre%3B%26quot%3B%26gt%3B%26%239%3B%26lt%3B%2Fspan%26gt%3Bbrowser%22%20style%3D%22text%3Balign%3Dleft%3BverticalAlign%3Dtop%3BspacingLeft%3D4%3BspacingRight%3D4%3Boverflow%3Dhidden%3Brotatable%3D0%3Bpoints%3D%5B%5B0%2C0.5%5D%2C%5B1%2C0.5%5D%5D%3BportConstraint%3Deastwest%3BwhiteSpace%3Dwrap%3Bhtml%3D1%3BfontSize%3D14%3BlabelBackgroundColor%3Ddefault%3B%22%20vertex%3D%221%22%20parent%3D%222%22%3E%3CmxGeometry%20y%3D%22180%22%20width%3D%22140%22%20height%3D%2232%22%20as%3D%22geometry%22%2F%3E%3C%2FmxCell%3E%3CmxCell%20id%3D%229%22%20value%3D%22%26lt%3Bspan%20style%3D%26quot%3Bwhite-space%3A%20pre%3B%26quot%3B%26gt%3B%26%239%3B%26lt%3B%2Fspan%26gt%3Btime_stamp%22%20style%3D%22text%3Balign%3Dleft%3BverticalAlign%3Dtop%3BspacingLeft%3D4%3BspacingRight%3D4%3Boverflow%3Dhidden%3Brotatable%3D0%3Bpoints%3D%5B%5B0%2C0.5%5D%2C%5B1%2C0.5%5D%5D%3BportConstraint%3Deastwest%3BwhiteSpace%3Dwrap%3Bhtml%3D1%3BfontSize%3D14%3BlabelBackgroundColor%3Ddefault%3B%22%20vertex%3D%221%22%20parent%3D%222%22%3E%3CmxGeometry%20y%3D%22212%22%20width%3D%22140%22%20height%3D%2232%22%20as%3D%22geometry%22%2F%3E%3C%2FmxCell%3E%3C%2Froot%3E%3C%2FmxGraphModel%3E&lt;/span&gt;" style="text;align=left;verticalAlign=top;spacingLeft=4;spacingRight=4;overflow=hidden;rotatable=0;points=[[0,0.5],[1,0.5]];portConstraint=eastwest;whiteSpace=wrap;html=1;fontSize=18;labelBackgroundColor=default;" vertex="1" parent="LYKKpz5TpEzSUIl6XZAZ-25">
          <mxGeometry y="244" width="160" height="32" as="geometry" />
        </mxCell>
        <mxCell id="LYKKpz5TpEzSUIl6XZAZ-34" value="&lt;span style=&quot;white-space: pre; font-size: 18px;&quot;&gt;&#x9;&lt;/span&gt;contact" style="text;align=left;verticalAlign=top;spacingLeft=4;spacingRight=4;overflow=hidden;rotatable=0;points=[[0,0.5],[1,0.5]];portConstraint=eastwest;whiteSpace=wrap;html=1;fontSize=18;labelBackgroundColor=default;" vertex="1" parent="LYKKpz5TpEzSUIl6XZAZ-25">
          <mxGeometry y="276" width="160" height="32" as="geometry" />
        </mxCell>
        <mxCell id="LYKKpz5TpEzSUIl6XZAZ-35" value="&lt;span style=&quot;white-space: pre; font-size: 18px;&quot;&gt;&#x9;&lt;/span&gt;address" style="text;align=left;verticalAlign=top;spacingLeft=4;spacingRight=4;overflow=hidden;rotatable=0;points=[[0,0.5],[1,0.5]];portConstraint=eastwest;whiteSpace=wrap;html=1;fontSize=18;labelBackgroundColor=default;" vertex="1" parent="LYKKpz5TpEzSUIl6XZAZ-25">
          <mxGeometry y="308" width="160" height="32" as="geometry" />
        </mxCell>
        <mxCell id="LYKKpz5TpEzSUIl6XZAZ-36" value="&lt;span style=&quot;white-space: pre; font-size: 18px;&quot;&gt;&#x9;&lt;/span&gt;birthday" style="text;align=left;verticalAlign=top;spacingLeft=4;spacingRight=4;overflow=hidden;rotatable=0;points=[[0,0.5],[1,0.5]];portConstraint=eastwest;whiteSpace=wrap;html=1;fontSize=18;labelBackgroundColor=default;" vertex="1" parent="LYKKpz5TpEzSUIl6XZAZ-25">
          <mxGeometry y="340" width="160" height="32" as="geometry" />
        </mxCell>
        <mxCell id="LYKKpz5TpEzSUIl6XZAZ-37" value="Appointments" style="swimlane;fontStyle=0;childLayout=stackLayout;horizontal=1;startSize=26;horizontalStack=0;resizeParent=1;resizeParentMax=0;resizeLast=0;collapsible=1;marginBottom=0;html=1;fontSize=18;fillColor=#ffff88;strokeColor=#070708;" vertex="1" parent="1">
          <mxGeometry x="540" y="374" width="200" height="308" as="geometry" />
        </mxCell>
        <mxCell id="LYKKpz5TpEzSUIl6XZAZ-38" value="PK&lt;span style=&quot;white-space: pre; font-size: 18px;&quot;&gt;&#x9;&lt;/span&gt;appointment_id" style="text;align=left;verticalAlign=top;spacingLeft=4;spacingRight=4;overflow=hidden;rotatable=0;points=[[0,0.5],[1,0.5]];portConstraint=eastwest;whiteSpace=wrap;html=1;fontSize=18;" vertex="1" parent="LYKKpz5TpEzSUIl6XZAZ-37">
          <mxGeometry y="26" width="200" height="26" as="geometry" />
        </mxCell>
        <mxCell id="LYKKpz5TpEzSUIl6XZAZ-39" value="FK&lt;span style=&quot;white-space: pre; font-size: 18px;&quot;&gt;&#x9;&lt;/span&gt;user_id" style="text;align=left;verticalAlign=top;spacingLeft=4;spacingRight=4;overflow=hidden;rotatable=0;points=[[0,0.5],[1,0.5]];portConstraint=eastwest;whiteSpace=wrap;html=1;fontSize=18;labelBackgroundColor=default;" vertex="1" parent="LYKKpz5TpEzSUIl6XZAZ-37">
          <mxGeometry y="52" width="200" height="32" as="geometry" />
        </mxCell>
        <mxCell id="LYKKpz5TpEzSUIl6XZAZ-40" value="FK&lt;span style=&quot;white-space: pre; font-size: 18px;&quot;&gt;&#x9;&lt;/span&gt;service_id" style="text;align=left;verticalAlign=top;spacingLeft=4;spacingRight=4;overflow=hidden;rotatable=0;points=[[0,0.5],[1,0.5]];portConstraint=eastwest;whiteSpace=wrap;html=1;fontSize=18;labelBackgroundColor=default;" vertex="1" parent="LYKKpz5TpEzSUIl6XZAZ-37">
          <mxGeometry y="84" width="200" height="32" as="geometry" />
        </mxCell>
        <mxCell id="LYKKpz5TpEzSUIl6XZAZ-41" value="&lt;span style=&quot;white-space: pre; font-size: 18px;&quot;&gt;&#x9;&lt;/span&gt;appointment_date" style="text;align=left;verticalAlign=top;spacingLeft=4;spacingRight=4;overflow=hidden;rotatable=0;points=[[0,0.5],[1,0.5]];portConstraint=eastwest;whiteSpace=wrap;html=1;fontSize=18;labelBackgroundColor=default;" vertex="1" parent="LYKKpz5TpEzSUIl6XZAZ-37">
          <mxGeometry y="116" width="200" height="32" as="geometry" />
        </mxCell>
        <mxCell id="LYKKpz5TpEzSUIl6XZAZ-42" value="&lt;span style=&quot;white-space: pre; font-size: 18px;&quot;&gt;&#x9;&lt;/span&gt;appointment_time" style="text;align=left;verticalAlign=top;spacingLeft=4;spacingRight=4;overflow=hidden;rotatable=0;points=[[0,0.5],[1,0.5]];portConstraint=eastwest;whiteSpace=wrap;html=1;fontSize=18;labelBackgroundColor=default;" vertex="1" parent="LYKKpz5TpEzSUIl6XZAZ-37">
          <mxGeometry y="148" width="200" height="32" as="geometry" />
        </mxCell>
        <mxCell id="LYKKpz5TpEzSUIl6XZAZ-43" value="&lt;span style=&quot;white-space: pre; font-size: 18px;&quot;&gt;&#x9;&lt;/span&gt;request_image" style="text;align=left;verticalAlign=top;spacingLeft=4;spacingRight=4;overflow=hidden;rotatable=0;points=[[0,0.5],[1,0.5]];portConstraint=eastwest;whiteSpace=wrap;html=1;fontSize=18;labelBackgroundColor=default;" vertex="1" parent="LYKKpz5TpEzSUIl6XZAZ-37">
          <mxGeometry y="180" width="200" height="32" as="geometry" />
        </mxCell>
        <mxCell id="LYKKpz5TpEzSUIl6XZAZ-44" value="&lt;span style=&quot;white-space: pre; font-size: 18px;&quot;&gt;&#x9;&lt;/span&gt;notes" style="text;align=left;verticalAlign=top;spacingLeft=4;spacingRight=4;overflow=hidden;rotatable=0;points=[[0,0.5],[1,0.5]];portConstraint=eastwest;whiteSpace=wrap;html=1;fontSize=18;labelBackgroundColor=default;" vertex="1" parent="LYKKpz5TpEzSUIl6XZAZ-37">
          <mxGeometry y="212" width="200" height="32" as="geometry" />
        </mxCell>
        <mxCell id="LYKKpz5TpEzSUIl6XZAZ-45" value="&lt;span style=&quot;white-space: pre; font-size: 18px;&quot;&gt;&#x9;&lt;/span&gt;status" style="text;align=left;verticalAlign=top;spacingLeft=4;spacingRight=4;overflow=hidden;rotatable=0;points=[[0,0.5],[1,0.5]];portConstraint=eastwest;whiteSpace=wrap;html=1;fontSize=18;labelBackgroundColor=default;" vertex="1" parent="LYKKpz5TpEzSUIl6XZAZ-37">
          <mxGeometry y="244" width="200" height="32" as="geometry" />
        </mxCell>
        <mxCell id="LYKKpz5TpEzSUIl6XZAZ-46" value="&lt;span style=&quot;white-space: pre; font-size: 18px;&quot;&gt;&#x9;&lt;/span&gt;time_stamp" style="text;align=left;verticalAlign=top;spacingLeft=4;spacingRight=4;overflow=hidden;rotatable=0;points=[[0,0.5],[1,0.5]];portConstraint=eastwest;whiteSpace=wrap;html=1;fontSize=18;labelBackgroundColor=default;" vertex="1" parent="LYKKpz5TpEzSUIl6XZAZ-37">
          <mxGeometry y="276" width="200" height="32" as="geometry" />
        </mxCell>
        <mxCell id="LYKKpz5TpEzSUIl6XZAZ-49" value="Services" style="swimlane;fontStyle=0;childLayout=stackLayout;horizontal=1;startSize=26;horizontalStack=0;resizeParent=1;resizeParentMax=0;resizeLast=0;collapsible=1;marginBottom=0;html=1;fontSize=18;fillColor=#ffff88;strokeColor=#070708;" vertex="1" parent="1">
          <mxGeometry x="820" y="374" width="170" height="212" as="geometry" />
        </mxCell>
        <mxCell id="LYKKpz5TpEzSUIl6XZAZ-50" value="PK&lt;span style=&quot;white-space: pre; font-size: 18px;&quot;&gt;&#x9;&lt;/span&gt;service_id" style="text;align=left;verticalAlign=top;spacingLeft=4;spacingRight=4;overflow=hidden;rotatable=0;points=[[0,0.5],[1,0.5]];portConstraint=eastwest;whiteSpace=wrap;html=1;fontSize=18;" vertex="1" parent="LYKKpz5TpEzSUIl6XZAZ-49">
          <mxGeometry y="26" width="170" height="26" as="geometry" />
        </mxCell>
        <mxCell id="LYKKpz5TpEzSUIl6XZAZ-51" value="FK&lt;span style=&quot;white-space: pre; font-size: 18px;&quot;&gt;&#x9;&lt;/span&gt;doctor_id" style="text;align=left;verticalAlign=top;spacingLeft=4;spacingRight=4;overflow=hidden;rotatable=0;points=[[0,0.5],[1,0.5]];portConstraint=eastwest;whiteSpace=wrap;html=1;fontSize=18;labelBackgroundColor=default;" vertex="1" parent="LYKKpz5TpEzSUIl6XZAZ-49">
          <mxGeometry y="52" width="170" height="32" as="geometry" />
        </mxCell>
        <mxCell id="LYKKpz5TpEzSUIl6XZAZ-52" value="&lt;span style=&quot;white-space: pre; font-size: 18px;&quot;&gt;&#x9;&lt;/span&gt;service_name" style="text;align=left;verticalAlign=top;spacingLeft=4;spacingRight=4;overflow=hidden;rotatable=0;points=[[0,0.5],[1,0.5]];portConstraint=eastwest;whiteSpace=wrap;html=1;fontSize=18;labelBackgroundColor=default;" vertex="1" parent="LYKKpz5TpEzSUIl6XZAZ-49">
          <mxGeometry y="84" width="170" height="32" as="geometry" />
        </mxCell>
        <mxCell id="LYKKpz5TpEzSUIl6XZAZ-53" value="&lt;span style=&quot;white-space: pre; font-size: 18px;&quot;&gt;&#x9;&lt;/span&gt;description" style="text;align=left;verticalAlign=top;spacingLeft=4;spacingRight=4;overflow=hidden;rotatable=0;points=[[0,0.5],[1,0.5]];portConstraint=eastwest;whiteSpace=wrap;html=1;fontSize=18;labelBackgroundColor=default;" vertex="1" parent="LYKKpz5TpEzSUIl6XZAZ-49">
          <mxGeometry y="116" width="170" height="32" as="geometry" />
        </mxCell>
        <mxCell id="LYKKpz5TpEzSUIl6XZAZ-54" value="&lt;span style=&quot;white-space: pre; font-size: 18px;&quot;&gt;&#x9;&lt;/span&gt;cost" style="text;align=left;verticalAlign=top;spacingLeft=4;spacingRight=4;overflow=hidden;rotatable=0;points=[[0,0.5],[1,0.5]];portConstraint=eastwest;whiteSpace=wrap;html=1;fontSize=18;labelBackgroundColor=default;" vertex="1" parent="LYKKpz5TpEzSUIl6XZAZ-49">
          <mxGeometry y="148" width="170" height="32" as="geometry" />
        </mxCell>
        <mxCell id="LYKKpz5TpEzSUIl6XZAZ-55" value="&lt;span style=&quot;white-space: pre; font-size: 18px;&quot;&gt;&#x9;&lt;/span&gt;duration" style="text;align=left;verticalAlign=top;spacingLeft=4;spacingRight=4;overflow=hidden;rotatable=0;points=[[0,0.5],[1,0.5]];portConstraint=eastwest;whiteSpace=wrap;html=1;fontSize=18;labelBackgroundColor=default;" vertex="1" parent="LYKKpz5TpEzSUIl6XZAZ-49">
          <mxGeometry y="180" width="170" height="32" as="geometry" />
        </mxCell>
        <mxCell id="LYKKpz5TpEzSUIl6XZAZ-59" value="ServiceAvailability" style="swimlane;fontStyle=0;childLayout=stackLayout;horizontal=1;startSize=26;horizontalStack=0;resizeParent=1;resizeParentMax=0;resizeLast=0;collapsible=1;marginBottom=0;html=1;fontSize=18;fillColor=#ffff88;strokeColor=#070708;" vertex="1" parent="1">
          <mxGeometry x="1070" y="374" width="180" height="180" as="geometry" />
        </mxCell>
        <mxCell id="LYKKpz5TpEzSUIl6XZAZ-60" value="PK&lt;span style=&quot;white-space: pre; font-size: 18px;&quot;&gt;&#x9;&lt;/span&gt;service_avail_id" style="text;align=left;verticalAlign=top;spacingLeft=4;spacingRight=4;overflow=hidden;rotatable=0;points=[[0,0.5],[1,0.5]];portConstraint=eastwest;whiteSpace=wrap;html=1;fontSize=18;" vertex="1" parent="LYKKpz5TpEzSUIl6XZAZ-59">
          <mxGeometry y="26" width="180" height="26" as="geometry" />
        </mxCell>
        <mxCell id="LYKKpz5TpEzSUIl6XZAZ-61" value="FK&lt;span style=&quot;white-space: pre; font-size: 18px;&quot;&gt;&#x9;&lt;/span&gt;service_id" style="text;align=left;verticalAlign=top;spacingLeft=4;spacingRight=4;overflow=hidden;rotatable=0;points=[[0,0.5],[1,0.5]];portConstraint=eastwest;whiteSpace=wrap;html=1;fontSize=18;labelBackgroundColor=default;" vertex="1" parent="LYKKpz5TpEzSUIl6XZAZ-59">
          <mxGeometry y="52" width="180" height="32" as="geometry" />
        </mxCell>
        <mxCell id="LYKKpz5TpEzSUIl6XZAZ-62" value="&lt;span style=&quot;white-space: pre; font-size: 18px;&quot;&gt;&#x9;&lt;/span&gt;avail_date" style="text;align=left;verticalAlign=top;spacingLeft=4;spacingRight=4;overflow=hidden;rotatable=0;points=[[0,0.5],[1,0.5]];portConstraint=eastwest;whiteSpace=wrap;html=1;fontSize=18;labelBackgroundColor=default;" vertex="1" parent="LYKKpz5TpEzSUIl6XZAZ-59">
          <mxGeometry y="84" width="180" height="32" as="geometry" />
        </mxCell>
        <mxCell id="LYKKpz5TpEzSUIl6XZAZ-63" value="&lt;span style=&quot;white-space: pre; font-size: 18px;&quot;&gt;&#x9;&lt;/span&gt;avail_start_time" style="text;align=left;verticalAlign=top;spacingLeft=4;spacingRight=4;overflow=hidden;rotatable=0;points=[[0,0.5],[1,0.5]];portConstraint=eastwest;whiteSpace=wrap;html=1;fontSize=18;labelBackgroundColor=default;" vertex="1" parent="LYKKpz5TpEzSUIl6XZAZ-59">
          <mxGeometry y="116" width="180" height="32" as="geometry" />
        </mxCell>
        <mxCell id="LYKKpz5TpEzSUIl6XZAZ-64" value="&lt;span style=&quot;white-space: pre; font-size: 18px;&quot;&gt;&#x9;&lt;/span&gt;avail_end_time" style="text;align=left;verticalAlign=top;spacingLeft=4;spacingRight=4;overflow=hidden;rotatable=0;points=[[0,0.5],[1,0.5]];portConstraint=eastwest;whiteSpace=wrap;html=1;fontSize=18;labelBackgroundColor=default;" vertex="1" parent="LYKKpz5TpEzSUIl6XZAZ-59">
          <mxGeometry y="148" width="180" height="32" as="geometry" />
        </mxCell>
        <mxCell id="LYKKpz5TpEzSUIl6XZAZ-66" value="AppointmentHistory" style="swimlane;fontStyle=0;childLayout=stackLayout;horizontal=1;startSize=26;horizontalStack=0;resizeParent=1;resizeParentMax=0;resizeLast=0;collapsible=1;marginBottom=0;html=1;fontSize=18;fillColor=#ffff88;strokeColor=#070708;" vertex="1" parent="1">
          <mxGeometry x="520" y="192" width="240" height="148" as="geometry" />
        </mxCell>
        <mxCell id="LYKKpz5TpEzSUIl6XZAZ-67" value="PK&lt;span style=&quot;white-space: pre; font-size: 18px;&quot;&gt;&#x9;&lt;/span&gt;appointment_history_id" style="text;align=left;verticalAlign=top;spacingLeft=4;spacingRight=4;overflow=hidden;rotatable=0;points=[[0,0.5],[1,0.5]];portConstraint=eastwest;whiteSpace=wrap;html=1;fontSize=18;" vertex="1" parent="LYKKpz5TpEzSUIl6XZAZ-66">
          <mxGeometry y="26" width="240" height="26" as="geometry" />
        </mxCell>
        <mxCell id="LYKKpz5TpEzSUIl6XZAZ-68" value="FK&lt;span style=&quot;white-space: pre; font-size: 18px;&quot;&gt;&#x9;&lt;/span&gt;user_id" style="text;align=left;verticalAlign=top;spacingLeft=4;spacingRight=4;overflow=hidden;rotatable=0;points=[[0,0.5],[1,0.5]];portConstraint=eastwest;whiteSpace=wrap;html=1;fontSize=18;labelBackgroundColor=default;" vertex="1" parent="LYKKpz5TpEzSUIl6XZAZ-66">
          <mxGeometry y="52" width="240" height="32" as="geometry" />
        </mxCell>
        <mxCell id="LYKKpz5TpEzSUIl6XZAZ-69" value="FK&lt;span style=&quot;white-space: pre; font-size: 18px;&quot;&gt;&#x9;&lt;/span&gt;appointment_id" style="text;align=left;verticalAlign=top;spacingLeft=4;spacingRight=4;overflow=hidden;rotatable=0;points=[[0,0.5],[1,0.5]];portConstraint=eastwest;whiteSpace=wrap;html=1;fontSize=18;labelBackgroundColor=default;" vertex="1" parent="LYKKpz5TpEzSUIl6XZAZ-66">
          <mxGeometry y="84" width="240" height="32" as="geometry" />
        </mxCell>
        <mxCell id="LYKKpz5TpEzSUIl6XZAZ-70" value="&lt;span style=&quot;white-space: pre; font-size: 18px;&quot;&gt;&#x9;&lt;/span&gt;time_stamp" style="text;align=left;verticalAlign=top;spacingLeft=4;spacingRight=4;overflow=hidden;rotatable=0;points=[[0,0.5],[1,0.5]];portConstraint=eastwest;whiteSpace=wrap;html=1;fontSize=18;labelBackgroundColor=default;" vertex="1" parent="LYKKpz5TpEzSUIl6XZAZ-66">
          <mxGeometry y="116" width="240" height="32" as="geometry" />
        </mxCell>
        <mxCell id="LYKKpz5TpEzSUIl6XZAZ-73" value="Doctors" style="swimlane;fontStyle=0;childLayout=stackLayout;horizontal=1;startSize=26;horizontalStack=0;resizeParent=1;resizeParentMax=0;resizeLast=0;collapsible=1;marginBottom=0;html=1;fontSize=18;fillColor=#ffff88;strokeColor=#070708;" vertex="1" parent="1">
          <mxGeometry x="820" y="670" width="170" height="180" as="geometry" />
        </mxCell>
        <mxCell id="LYKKpz5TpEzSUIl6XZAZ-74" value="PK&lt;span style=&quot;white-space: pre; font-size: 18px;&quot;&gt;&#x9;&lt;/span&gt;doctor_id" style="text;align=left;verticalAlign=top;spacingLeft=4;spacingRight=4;overflow=hidden;rotatable=0;points=[[0,0.5],[1,0.5]];portConstraint=eastwest;whiteSpace=wrap;html=1;fontSize=18;" vertex="1" parent="LYKKpz5TpEzSUIl6XZAZ-73">
          <mxGeometry y="26" width="170" height="26" as="geometry" />
        </mxCell>
        <mxCell id="LYKKpz5TpEzSUIl6XZAZ-75" value="&lt;span style=&quot;white-space: pre; font-size: 18px;&quot;&gt;&#x9;&lt;/span&gt;first_name" style="text;align=left;verticalAlign=top;spacingLeft=4;spacingRight=4;overflow=hidden;rotatable=0;points=[[0,0.5],[1,0.5]];portConstraint=eastwest;whiteSpace=wrap;html=1;fontSize=18;labelBackgroundColor=default;" vertex="1" parent="LYKKpz5TpEzSUIl6XZAZ-73">
          <mxGeometry y="52" width="170" height="32" as="geometry" />
        </mxCell>
        <mxCell id="LYKKpz5TpEzSUIl6XZAZ-76" value="&lt;span style=&quot;white-space: pre; font-size: 18px;&quot;&gt;&#x9;&lt;/span&gt;middle_name" style="text;align=left;verticalAlign=top;spacingLeft=4;spacingRight=4;overflow=hidden;rotatable=0;points=[[0,0.5],[1,0.5]];portConstraint=eastwest;whiteSpace=wrap;html=1;fontSize=18;labelBackgroundColor=default;" vertex="1" parent="LYKKpz5TpEzSUIl6XZAZ-73">
          <mxGeometry y="84" width="170" height="32" as="geometry" />
        </mxCell>
        <mxCell id="LYKKpz5TpEzSUIl6XZAZ-77" value="&lt;span style=&quot;white-space: pre; font-size: 18px;&quot;&gt;&#x9;&lt;/span&gt;last_name" style="text;align=left;verticalAlign=top;spacingLeft=4;spacingRight=4;overflow=hidden;rotatable=0;points=[[0,0.5],[1,0.5]];portConstraint=eastwest;whiteSpace=wrap;html=1;fontSize=18;labelBackgroundColor=default;" vertex="1" parent="LYKKpz5TpEzSUIl6XZAZ-73">
          <mxGeometry y="116" width="170" height="32" as="geometry" />
        </mxCell>
        <mxCell id="LYKKpz5TpEzSUIl6XZAZ-78" value="&lt;span style=&quot;white-space: pre; font-size: 18px;&quot;&gt;&#x9;&lt;/span&gt;contact" style="text;align=left;verticalAlign=top;spacingLeft=4;spacingRight=4;overflow=hidden;rotatable=0;points=[[0,0.5],[1,0.5]];portConstraint=eastwest;whiteSpace=wrap;html=1;fontSize=18;labelBackgroundColor=default;" vertex="1" parent="LYKKpz5TpEzSUIl6XZAZ-73">
          <mxGeometry y="148" width="170" height="32" as="geometry" />
        </mxCell>
        <mxCell id="LYKKpz5TpEzSUIl6XZAZ-80" value="DoctorAvailability" style="swimlane;fontStyle=0;childLayout=stackLayout;horizontal=1;startSize=26;horizontalStack=0;resizeParent=1;resizeParentMax=0;resizeLast=0;collapsible=1;marginBottom=0;html=1;fontSize=18;fillColor=#ffff88;strokeColor=#070708;" vertex="1" parent="1">
          <mxGeometry x="1080" y="670" width="170" height="148" as="geometry" />
        </mxCell>
        <mxCell id="LYKKpz5TpEzSUIl6XZAZ-81" value="PK&lt;span style=&quot;white-space: pre; font-size: 18px;&quot;&gt;&#x9;&lt;/span&gt;doctor_avail_id" style="text;align=left;verticalAlign=top;spacingLeft=4;spacingRight=4;overflow=hidden;rotatable=0;points=[[0,0.5],[1,0.5]];portConstraint=eastwest;whiteSpace=wrap;html=1;fontSize=18;" vertex="1" parent="LYKKpz5TpEzSUIl6XZAZ-80">
          <mxGeometry y="26" width="170" height="26" as="geometry" />
        </mxCell>
        <mxCell id="LYKKpz5TpEzSUIl6XZAZ-82" value="FK&lt;span style=&quot;white-space: pre; font-size: 18px;&quot;&gt;&#x9;&lt;/span&gt;doctor_id" style="text;align=left;verticalAlign=top;spacingLeft=4;spacingRight=4;overflow=hidden;rotatable=0;points=[[0,0.5],[1,0.5]];portConstraint=eastwest;whiteSpace=wrap;html=1;fontSize=18;labelBackgroundColor=default;" vertex="1" parent="LYKKpz5TpEzSUIl6XZAZ-80">
          <mxGeometry y="52" width="170" height="32" as="geometry" />
        </mxCell>
        <mxCell id="LYKKpz5TpEzSUIl6XZAZ-83" value="&lt;span style=&quot;white-space: pre; font-size: 18px;&quot;&gt;&#x9;&lt;/span&gt;avail_date" style="text;align=left;verticalAlign=top;spacingLeft=4;spacingRight=4;overflow=hidden;rotatable=0;points=[[0,0.5],[1,0.5]];portConstraint=eastwest;whiteSpace=wrap;html=1;fontSize=18;labelBackgroundColor=default;" vertex="1" parent="LYKKpz5TpEzSUIl6XZAZ-80">
          <mxGeometry y="84" width="170" height="32" as="geometry" />
        </mxCell>
        <mxCell id="LYKKpz5TpEzSUIl6XZAZ-84" value="&lt;span style=&quot;white-space: pre; font-size: 18px;&quot;&gt;&#x9;&lt;/span&gt;avail_time" style="text;align=left;verticalAlign=top;spacingLeft=4;spacingRight=4;overflow=hidden;rotatable=0;points=[[0,0.5],[1,0.5]];portConstraint=eastwest;whiteSpace=wrap;html=1;fontSize=18;labelBackgroundColor=default;" vertex="1" parent="LYKKpz5TpEzSUIl6XZAZ-80">
          <mxGeometry y="116" width="170" height="32" as="geometry" />
        </mxCell>
        <mxCell id="LYKKpz5TpEzSUIl6XZAZ-86" style="edgeStyle=orthogonalEdgeStyle;html=1;labelBackgroundColor=none;startArrow=ERone;endArrow=ERone;fontFamily=Verdana;fontSize=18;align=left;startFill=0;endFill=0;exitX=-0.002;exitY=0.569;exitDx=0;exitDy=0;exitPerimeter=0;strokeWidth=3;endSize=10;startSize=10;" edge="1" parent="1" source="LYKKpz5TpEzSUIl6XZAZ-61">
          <mxGeometry relative="1" as="geometry">
            <mxPoint x="1080" y="444" as="sourcePoint" />
            <mxPoint x="990" y="444" as="targetPoint" />
            <Array as="points" />
          </mxGeometry>
        </mxCell>
        <mxCell id="LYKKpz5TpEzSUIl6XZAZ-88" style="edgeStyle=orthogonalEdgeStyle;html=1;labelBackgroundColor=none;startArrow=ERone;endArrow=ERone;fontFamily=Verdana;fontSize=18;align=left;startFill=0;endFill=0;exitX=-0.002;exitY=0.569;exitDx=0;exitDy=0;exitPerimeter=0;strokeWidth=3;jumpSize=6;startSize=10;endSize=10;" edge="1" parent="1">
          <mxGeometry relative="1" as="geometry">
            <mxPoint x="1080" y="734" as="sourcePoint" />
            <mxPoint x="990" y="734" as="targetPoint" />
            <Array as="points" />
          </mxGeometry>
        </mxCell>
        <mxCell id="LYKKpz5TpEzSUIl6XZAZ-89" style="edgeStyle=orthogonalEdgeStyle;html=1;labelBackgroundColor=none;startArrow=ERmandOne;endArrow=ERoneToMany;fontFamily=Verdana;fontSize=18;align=left;startFill=0;endFill=0;exitX=-0.002;exitY=0.569;exitDx=0;exitDy=0;exitPerimeter=0;strokeWidth=3;endSize=10;startSize=10;" edge="1" parent="1">
          <mxGeometry relative="1" as="geometry">
            <mxPoint x="820" y="454" as="sourcePoint" />
            <mxPoint x="740" y="454" as="targetPoint" />
            <Array as="points" />
          </mxGeometry>
        </mxCell>
        <mxCell id="LYKKpz5TpEzSUIl6XZAZ-90" style="edgeStyle=orthogonalEdgeStyle;html=1;labelBackgroundColor=none;startArrow=ERoneToMany;endArrow=ERmandOne;fontFamily=Verdana;fontSize=18;align=left;startFill=0;endFill=0;exitX=0;exitY=0.5;exitDx=0;exitDy=0;strokeWidth=3;entryX=0;entryY=0.5;entryDx=0;entryDy=0;targetPerimeterSpacing=0;jumpSize=6;rounded=0;curved=0;endSize=10;startSize=10;" edge="1" parent="1" source="LYKKpz5TpEzSUIl6XZAZ-52" target="LYKKpz5TpEzSUIl6XZAZ-74">
          <mxGeometry relative="1" as="geometry">
            <mxPoint x="930" y="624" as="sourcePoint" />
            <mxPoint x="840" y="624" as="targetPoint" />
            <Array as="points">
              <mxPoint x="760" y="474" />
              <mxPoint x="760" y="709" />
            </Array>
          </mxGeometry>
        </mxCell>
        <mxCell id="LYKKpz5TpEzSUIl6XZAZ-91" style="edgeStyle=orthogonalEdgeStyle;html=1;labelBackgroundColor=none;startArrow=ERone;endArrow=ERone;fontFamily=Verdana;fontSize=18;align=left;startFill=0;endFill=0;strokeWidth=3;entryX=1.006;entryY=-0.091;entryDx=0;entryDy=0;entryPerimeter=0;rounded=0;curved=0;endSize=10;startSize=10;" edge="1" parent="1" target="LYKKpz5TpEzSUIl6XZAZ-39">
          <mxGeometry relative="1" as="geometry">
            <mxPoint x="760" y="254" as="sourcePoint" />
            <mxPoint x="500" y="324" as="targetPoint" />
            <Array as="points">
              <mxPoint x="790" y="254" />
              <mxPoint x="790" y="423" />
            </Array>
          </mxGeometry>
        </mxCell>
        <mxCell id="LYKKpz5TpEzSUIl6XZAZ-92" style="edgeStyle=orthogonalEdgeStyle;html=1;labelBackgroundColor=none;startArrow=ERoneToMany;endArrow=ERmandOne;fontFamily=Verdana;fontSize=18;align=left;startFill=0;endFill=0;exitX=0;exitY=0.5;exitDx=0;exitDy=0;strokeWidth=3;entryX=0;entryY=0.5;entryDx=0;entryDy=0;rounded=0;curved=0;endSize=10;startSize=10;" edge="1" parent="1" source="LYKKpz5TpEzSUIl6XZAZ-26" target="LYKKpz5TpEzSUIl6XZAZ-4">
          <mxGeometry relative="1" as="geometry">
            <mxPoint x="190" y="50" as="sourcePoint" />
            <mxPoint x="190" y="285" as="targetPoint" />
            <Array as="points">
              <mxPoint x="260" y="419" />
              <mxPoint x="260" y="269" />
            </Array>
          </mxGeometry>
        </mxCell>
        <mxCell id="LYKKpz5TpEzSUIl6XZAZ-94" style="edgeStyle=orthogonalEdgeStyle;html=1;labelBackgroundColor=none;startArrow=ERone;endArrow=ERone;fontFamily=Verdana;fontSize=18;align=left;startFill=0;endFill=0;strokeWidth=3;endSize=10;startSize=10;entryX=1.001;entryY=0.564;entryDx=0;entryDy=0;entryPerimeter=0;" edge="1" parent="1" target="LYKKpz5TpEzSUIl6XZAZ-14">
          <mxGeometry relative="1" as="geometry">
            <mxPoint x="300" y="451" as="sourcePoint" />
            <mxPoint x="230" y="450" as="targetPoint" />
            <Array as="points">
              <mxPoint x="300" y="451" />
              <mxPoint x="240" y="451" />
            </Array>
          </mxGeometry>
        </mxCell>
        <mxCell id="LYKKpz5TpEzSUIl6XZAZ-95" style="edgeStyle=orthogonalEdgeStyle;html=1;labelBackgroundColor=none;startArrow=ERone;endArrow=ERone;fontFamily=Verdana;fontSize=18;align=left;startFill=0;endFill=0;exitX=0;exitY=0.5;exitDx=0;exitDy=0;strokeWidth=3;rounded=0;curved=0;endSize=10;startSize=10;" edge="1" parent="1" source="LYKKpz5TpEzSUIl6XZAZ-28">
          <mxGeometry relative="1" as="geometry">
            <mxPoint x="320" y="620" as="sourcePoint" />
            <mxPoint x="240" y="620" as="targetPoint" />
            <Array as="points">
              <mxPoint x="260" y="480" />
              <mxPoint x="260" y="620" />
            </Array>
          </mxGeometry>
        </mxCell>
        <mxCell id="LYKKpz5TpEzSUIl6XZAZ-102" style="edgeStyle=orthogonalEdgeStyle;html=1;labelBackgroundColor=none;startArrow=ERzeroToMany;endArrow=ERoneToMany;fontFamily=Verdana;fontSize=18;align=left;startFill=0;endFill=0;strokeWidth=3;sourcePerimeterSpacing=0;endSize=10;startSize=10;" edge="1" parent="1">
          <mxGeometry relative="1" as="geometry">
            <mxPoint x="540" y="470" as="sourcePoint" />
            <mxPoint x="460" y="470" as="targetPoint" />
            <Array as="points">
              <mxPoint x="540" y="470" />
              <mxPoint x="459" y="470" />
            </Array>
          </mxGeometry>
        </mxCell>
        <mxCell id="LYKKpz5TpEzSUIl6XZAZ-104" style="edgeStyle=orthogonalEdgeStyle;html=1;labelBackgroundColor=none;startArrow=ERone;endArrow=ERone;fontFamily=Verdana;fontSize=18;align=left;startFill=0;endFill=0;strokeWidth=3;entryX=1.006;entryY=-0.091;entryDx=0;entryDy=0;entryPerimeter=0;rounded=0;curved=0;endSize=10;startSize=10;exitX=0;exitY=0.5;exitDx=0;exitDy=0;" edge="1" parent="1" source="LYKKpz5TpEzSUIl6XZAZ-68">
          <mxGeometry relative="1" as="geometry">
            <mxPoint x="479" y="256" as="sourcePoint" />
            <mxPoint x="460" y="425" as="targetPoint" />
            <Array as="points">
              <mxPoint x="500" y="260" />
              <mxPoint x="500" y="425" />
            </Array>
          </mxGeometry>
        </mxCell>
      </root>
    </mxGraphModel>
  </diagram>
</mxfile>
